<svg xmlns="http://www.w3.org/2000/svg" viewBox="0 0 197.73 196.28"><defs><style>.cls-1{fill:#fc9320;}.cls-2{fill:#f3b06c;}.cls-3{font-size:74.5px;fill:#53389f;font-family:Quicksand-SemiBold, Quicksand;font-weight:600;}.cls-4{letter-spacing:-0.02em;}.cls-5{letter-spacing:0em;}.cls-6{fill:#7d53da;}</style></defs><g id="Capa_2" data-name="Capa 2"><g id="Capa_1-2" data-name="Capa 1"><path class="cls-1" d="M154.91,0h0a0,0,0,0,1,0,0V35a35.74,35.74,0,0,1-35.74,35.74h0a0,0,0,0,1,0,0v-35A35.74,35.74,0,0,1,154.91,0Z"/><path class="cls-2" d="M154.91,70.72V51.24a.18.18,0,0,0-.34-.07,36,36,0,0,1-22.15,20.46,35.81,35.81,0,0,0-9.72,5.45,9.53,9.53,0,0,0-3.54,7.5v21.89h0A35.76,35.76,0,0,0,154.91,70.72Z"/><path class="cls-1" d="M77.8,0h0a35.74,35.74,0,0,1,35.74,35.74v35a0,0,0,0,1,0,0h0A35.74,35.74,0,0,1,77.8,35V0A0,0,0,0,1,77.8,0Z"/><path class="cls-2" d="M96.06,53.23h0a0,0,0,0,1,0,0v35A35.74,35.74,0,0,1,60.31,124h0a0,0,0,0,1,0,0V89A35.74,35.74,0,0,1,96.06,53.23Z" transform="translate(-10.41 166.78) rotate(-90)"/><text class="cls-3" transform="translate(0 179.81)"><tspan class="cls-4">K</tspan><tspan class="cls-5" x="47.83" y="0">yū</tspan><tspan class="cls-6" x="134.4" y="0">bi</tspan></text></g></g></svg>