<svg xmlns="http://www.w3.org/2000/svg" viewBox="0 0 112.09 106.47"><defs><style>.cls-1{fill:#fc9320;}.cls-2{fill:#f3b06c;}</style></defs><g id="Capa_2" data-name="Capa 2"><g id="Capa_1-2" data-name="Capa 1"><path class="cls-1" d="M112.09,0h0a0,0,0,0,1,0,0V35A35.74,35.74,0,0,1,76.34,70.72h0a0,0,0,0,1,0,0v-35A35.74,35.74,0,0,1,112.09,0Z"/><path class="cls-2" d="M112.09,70.72V51.24a.18.18,0,0,0-.35-.07A35.93,35.93,0,0,1,89.6,71.63a36,36,0,0,0-9.73,5.45,9.55,9.55,0,0,0-3.53,7.5v21.89h0A35.76,35.76,0,0,0,112.09,70.72Z"/><path class="cls-1" d="M35,0h0A35.74,35.74,0,0,1,70.72,35.74v35a0,0,0,0,1,0,0h0A35.74,35.74,0,0,1,35,35V0a0,0,0,0,1,0,0Z"/><path class="cls-2" d="M53.23,53.23h0a0,0,0,0,1,0,0v35A35.74,35.74,0,0,1,17.49,124h0a0,0,0,0,1,0,0V89A35.74,35.74,0,0,1,53.23,53.23Z" transform="translate(-53.23 123.96) rotate(-90)"/></g></g></svg>