<svg xmlns="http://www.w3.org/2000/svg" viewBox="0 0 410.81 106.47"><defs><style>.cls-1,.cls-2{fill:#fff;}.cls-2{font-size:93.87px;font-family:Quicksand-SemiBold, Quicksand;font-weight:600;}.cls-3{letter-spacing:-0.02em;}</style></defs><g id="Capa_2" data-name="Capa 2"><g id="Capa_1-2" data-name="Capa 1"><path class="cls-1" d="M112.09,0h0a0,0,0,0,1,0,0V35A35.74,35.74,0,0,1,76.34,70.72h0a0,0,0,0,1,0,0v-35A35.74,35.74,0,0,1,112.09,0Z"/><path class="cls-1" d="M112.09,70.72V51.24a.18.18,0,0,0-.35-.07A35.93,35.93,0,0,1,89.6,71.63a36,36,0,0,0-9.73,5.45,9.55,9.55,0,0,0-3.53,7.5v21.89h0A35.76,35.76,0,0,0,112.09,70.72Z"/><path class="cls-1" d="M35,0h0A35.74,35.74,0,0,1,70.72,35.74v35a0,0,0,0,1,0,0h0A35.74,35.74,0,0,1,35,35V0A0,0,0,0,1,35,0Z"/><path class="cls-1" d="M53.23,53.23h0a0,0,0,0,1,0,0v35A35.74,35.74,0,0,1,17.49,124h0a0,0,0,0,1,0,0V89A35.74,35.74,0,0,1,53.23,53.23Z" transform="translate(-53.23 123.96) rotate(-90)"/><text class="cls-2" transform="translate(135.57 82.76)"><tspan class="cls-3">K</tspan><tspan x="60.27" y="0">yūbi </tspan></text></g></g></svg>