<svg id="ac738cf9-61df-4725-b869-ea744f042e90" data-name="Capa 1" xmlns="http://www.w3.org/2000/svg" viewBox="0 0 162.68 70.87"><defs><style>.b49c3de0-125a-412c-9ca3-388ffe91f25e{fill:#3a2e85;}.fd35df14-ded0-4304-ab65-946b73c8884b{fill:#1181c5;}.b073da94-338a-427b-bf9a-9cbee6960fa5{fill:#382f87;}.f0b760d5-336c-4910-83bb-f45057156c48{fill:#1880c3;}.a5b61aab-06cf-4bca-8311-571194d24f3f{fill:#00a880;}.a99459bd-e027-4467-969c-d2abfc4a3855{fill:#e95169;}.b71d0df7-b507-4435-93ec-6ce552c8864b{fill:#1680c3;}</style></defs><title>TSJ_OL</title><path class="b49c3de0-125a-412c-9ca3-388ffe91f25e" d="M131.74,99.29v1.13a.18.18,0,0,1-.17.17h-3.23v9a.16.16,0,0,1-.17.17H127a.17.17,0,0,1-.18-.17v-9h-3.22a.17.17,0,0,1-.17-.17V99.29a.17.17,0,0,1,.17-.18h8A.18.18,0,0,1,131.74,99.29Z" transform="translate(-38.72 -84.24)"/><path class="b49c3de0-125a-412c-9ca3-388ffe91f25e" d="M134.28,102.42a3.58,3.58,0,0,0-3.66,3.74,3.52,3.52,0,0,0,3.62,3.74,3.64,3.64,0,0,0,3.15-1.47.17.17,0,0,0,0-.24l-.85-.67a.19.19,0,0,0-.25,0,2.36,2.36,0,0,1-2,1,2.08,2.08,0,0,1-2-1.83h5.29a.17.17,0,0,0,.17-.18v-.36C137.67,103.88,136.34,102.42,134.28,102.42Zm-2.06,3a1.93,1.93,0,0,1,2-1.57,1.71,1.71,0,0,1,1.85,1.57Z" transform="translate(-38.72 -84.24)"/><path class="b49c3de0-125a-412c-9ca3-388ffe91f25e" d="M145.06,108.52a.17.17,0,0,1,0,.24,3.44,3.44,0,0,1-2.7,1.14,3.74,3.74,0,0,1,0-7.48,3.59,3.59,0,0,1,2.74,1.13.21.21,0,0,1,0,.13.2.2,0,0,1-.06.12l-.9.8a.17.17,0,0,1-.25,0,1.92,1.92,0,0,0-1.58-.76,2.1,2.1,0,0,0-2.12,2.35,2.18,2.18,0,0,0,2.12,2.36,1.83,1.83,0,0,0,1.59-.77.13.13,0,0,1,.12-.07.18.18,0,0,1,.14,0Z" transform="translate(-38.72 -84.24)"/><path class="b49c3de0-125a-412c-9ca3-388ffe91f25e" d="M152.34,105.37v4.19a.17.17,0,0,1-.18.17H151a.17.17,0,0,1-.18-.17v-4.08c0-.76-.24-1.67-1.38-1.67-1.59,0-1.93,1.33-1.93,2.44v3.31a.17.17,0,0,1-.17.17h-1.13a.17.17,0,0,1-.18-.17v-5.18c0-.33,0-.63,0-.93s0-.47,0-.68a.17.17,0,0,1,.18-.17h1.07a.16.16,0,0,1,.17.17c0,.17,0,.36,0,.54v0a2.76,2.76,0,0,1,2.13-.94C151.33,102.42,152.34,103.49,152.34,105.37Z" transform="translate(-38.72 -84.24)"/><path class="b49c3de0-125a-412c-9ca3-388ffe91f25e" d="M157.55,102.42a3.74,3.74,0,1,0,3.8,3.74A3.65,3.65,0,0,0,157.55,102.42Zm0,6.1a2.36,2.36,0,1,1,2.23-2.36A2.2,2.2,0,0,1,157.55,108.52Z" transform="translate(-38.72 -84.24)"/><rect class="b49c3de0-125a-412c-9ca3-388ffe91f25e" x="124.14" y="14.17" width="1.47" height="11.31" rx="0.17"/><path class="b49c3de0-125a-412c-9ca3-388ffe91f25e" d="M171.87,99.18l-2.07,2.09a.21.21,0,0,1-.13,0h-1a.18.18,0,0,1-.15-.1.19.19,0,0,1,0-.18L170,99a.21.21,0,0,1,.14-.07h1.6a.17.17,0,0,1,.16.11A.19.19,0,0,1,171.87,99.18Z" transform="translate(-38.72 -84.24)"/><path class="b49c3de0-125a-412c-9ca3-388ffe91f25e" d="M169.64,102.42a3.74,3.74,0,1,0,3.8,3.74A3.64,3.64,0,0,0,169.64,102.42Zm0,6.1a2.36,2.36,0,1,1,2.24-2.36A2.2,2.2,0,0,1,169.64,108.52Z" transform="translate(-38.72 -84.24)"/><path class="b49c3de0-125a-412c-9ca3-388ffe91f25e" d="M181.8,102.6h-1.13a.16.16,0,0,0-.17.17v.63a3,3,0,0,0-2.25-1,3.53,3.53,0,0,0-3.79,3.74,3.6,3.6,0,0,0,3.79,3.66,3,3,0,0,0,2.25-1v.39c0,1.73-.79,2.57-2.4,2.57a3.07,3.07,0,0,1-2.4-1.12.19.19,0,0,0-.13,0,.16.16,0,0,0-.12.06l-.81.92a.17.17,0,0,0,0,.24,4.57,4.57,0,0,0,3.46,1.34c2.5,0,3.87-1.4,3.87-4v-6.48A.16.16,0,0,0,181.8,102.6Zm-3.55,5.83a2.31,2.31,0,0,1,0-4.62,2.31,2.31,0,0,1,0,4.62Z" transform="translate(-38.72 -84.24)"/><path class="b49c3de0-125a-412c-9ca3-388ffe91f25e" d="M185.56,100.11a1,1,0,0,1-1,1,1,1,0,0,1-1-1,1,1,0,1,1,2,0Z" transform="translate(-38.72 -84.24)"/><rect class="b49c3de0-125a-412c-9ca3-388ffe91f25e" x="145.1" y="18.35" width="1.47" height="7.14" rx="0.17"/><path class="b49c3de0-125a-412c-9ca3-388ffe91f25e" d="M193.18,108.52a.18.18,0,0,1,0,.24,3.45,3.45,0,0,1-2.7,1.14,3.74,3.74,0,0,1,0-7.48,3.61,3.61,0,0,1,2.74,1.13.16.16,0,0,1,0,.13.18.18,0,0,1-.05.12l-.9.8a.2.2,0,0,1-.13,0,.19.19,0,0,1-.12-.07,1.92,1.92,0,0,0-1.58-.76,2.1,2.1,0,0,0-2.12,2.35,2.17,2.17,0,0,0,2.12,2.36,1.84,1.84,0,0,0,1.59-.77.12.12,0,0,1,.12-.07.18.18,0,0,1,.14,0Z" transform="translate(-38.72 -84.24)"/><path class="b49c3de0-125a-412c-9ca3-388ffe91f25e" d="M197.6,102.42a3.74,3.74,0,1,0,3.8,3.74A3.65,3.65,0,0,0,197.6,102.42Zm0,6.1a2.36,2.36,0,1,1,2.23-2.36A2.2,2.2,0,0,1,197.6,108.52Z" transform="translate(-38.72 -84.24)"/><path class="b49c3de0-125a-412c-9ca3-388ffe91f25e" d="M130.51,122.16c0,2.19-1.9,3.17-3.79,3.17a3.82,3.82,0,0,1-3.3-1.5.17.17,0,0,1,0-.23l1-.85a.21.21,0,0,1,.15,0,.16.16,0,0,1,.11.09,2.33,2.33,0,0,0,2,1.06c1,0,2.07-.57,2.07-1.62s-.68-1.29-2.3-1.83l-.27-.09c-1.6-.53-2.67-1.24-2.67-3,0-2.15,1.9-3.13,3.67-3.13a3.7,3.7,0,0,1,3,1.27.17.17,0,0,1,0,.24l-1,.87a.16.16,0,0,1-.13,0,.15.15,0,0,1-.12-.08,2,2,0,0,0-1.73-.86c-.93,0-2,.41-2,1.55,0,.84.44,1.21,2,1.72S130.51,120,130.51,122.16Z" transform="translate(-38.72 -84.24)"/><path class="b49c3de0-125a-412c-9ca3-388ffe91f25e" d="M138.3,124.9a.17.17,0,0,1-.17.17h-1.08a.17.17,0,0,1-.17-.17c0-.18,0-.36,0-.54,0,0,0,0,0-.06a2.73,2.73,0,0,1-2.13.94c-1.75,0-2.76-1.07-2.76-2.94v-4.19a.17.17,0,0,1,.18-.17h1.13a.17.17,0,0,1,.17.17v4.07c0,.77.24,1.68,1.38,1.68,1.6,0,1.93-1.33,1.93-2.44v-3.31a.17.17,0,0,1,.17-.17h1.14a.17.17,0,0,1,.17.17v5.18c0,.33,0,.65,0,.92S138.3,124.69,138.3,124.9Z" transform="translate(-38.72 -84.24)"/><path class="b49c3de0-125a-412c-9ca3-388ffe91f25e" d="M143.75,117.76a3.26,3.26,0,0,0-2.29.93v-.58a.17.17,0,0,0-.17-.17h-1.14a.17.17,0,0,0-.17.17v10.1a.18.18,0,0,0,.17.17h1.14a.18.18,0,0,0,.17-.17v-4a3.26,3.26,0,0,0,2.47,1,3.74,3.74,0,0,0-.18-7.48Zm-.06,1.39a2.36,2.36,0,1,1-2.23,2.35A2.2,2.2,0,0,1,143.69,119.15Z" transform="translate(-38.72 -84.24)"/><path class="b49c3de0-125a-412c-9ca3-388ffe91f25e" d="M152.17,117.76a3.58,3.58,0,0,0-3.66,3.74,3.52,3.52,0,0,0,3.61,3.74,3.64,3.64,0,0,0,3.16-1.47.17.17,0,0,0,0-.24l-.86-.67a.17.17,0,0,0-.24,0,2.38,2.38,0,0,1-2,1,2.08,2.08,0,0,1-2-1.83h5.29a.18.18,0,0,0,.17-.18v-.36C155.56,119.22,154.23,117.76,152.17,117.76Zm-2.06,3a1.92,1.92,0,0,1,2-1.57,1.72,1.72,0,0,1,1.86,1.57Z" transform="translate(-38.72 -84.24)"/><path class="b49c3de0-125a-412c-9ca3-388ffe91f25e" d="M161.11,118l-.07,1.15a.17.17,0,0,1-.07.13.26.26,0,0,1-.15,0,2,2,0,0,0-.56-.08c-1.2,0-1.82.79-1.82,2.35v3.31a.16.16,0,0,1-.17.17h-1.13a.17.17,0,0,1-.17-.17v-5.18c0-.33,0-.63,0-.93s0-.47,0-.68a.17.17,0,0,1,.17-.17h1.08a.17.17,0,0,1,.17.17c0,.17,0,.36,0,.54v0a2.8,2.8,0,0,1,2.14-.94,1.38,1.38,0,0,1,.52.09A.16.16,0,0,1,161.11,118Z" transform="translate(-38.72 -84.24)"/><path class="b49c3de0-125a-412c-9ca3-388ffe91f25e" d="M163.92,115.45a1,1,0,0,1-1,1,1,1,0,0,1-1-1,1,1,0,1,1,2,0Z" transform="translate(-38.72 -84.24)"/><rect class="b49c3de0-125a-412c-9ca3-388ffe91f25e" x="123.46" y="33.69" width="1.48" height="7.14" rx="0.17"/><path class="b49c3de0-125a-412c-9ca3-388ffe91f25e" d="M169,117.76a3.74,3.74,0,1,0,3.79,3.74A3.65,3.65,0,0,0,169,117.76Zm0,6.1a2.36,2.36,0,1,1,2.23-2.36A2.2,2.2,0,0,1,169,123.86Z" transform="translate(-38.72 -84.24)"/><path class="b49c3de0-125a-412c-9ca3-388ffe91f25e" d="M178.32,118l-.07,1.15a.22.22,0,0,1-.08.13.25.25,0,0,1-.15,0,1.92,1.92,0,0,0-.55-.08c-1.21,0-1.82.79-1.82,2.35v3.31a.17.17,0,0,1-.17.17h-1.13a.17.17,0,0,1-.18-.17v-5.18c0-.33,0-.63,0-.93s0-.47,0-.68a.17.17,0,0,1,.18-.17h1.07a.16.16,0,0,1,.17.17c0,.17,0,.36,0,.54v0a2.76,2.76,0,0,1,2.13-.94,1.38,1.38,0,0,1,.52.09A.15.15,0,0,1,178.32,118Z" transform="translate(-38.72 -84.24)"/><path class="fd35df14-ded0-4304-ab65-946b73c8884b" d="M130.73,129.36H129.6a.17.17,0,0,0-.17.17v4.76a3.28,3.28,0,0,0-2.3-.92,3.58,3.58,0,0,0-3.74,3.74,3.62,3.62,0,0,0,3.57,3.74,3.29,3.29,0,0,0,2.47-1v.7a.16.16,0,0,0,.17.17h1.13a.17.17,0,0,0,.17-.17v-11A.18.18,0,0,0,130.73,129.36Zm-1.3,7.75a2.24,2.24,0,1,1-2.24-2.36A2.2,2.2,0,0,1,129.43,137.11Z" transform="translate(-38.72 -84.24)"/><path class="fd35df14-ded0-4304-ab65-946b73c8884b" d="M135.91,133.37a3.58,3.58,0,0,0-3.66,3.74,3.52,3.52,0,0,0,3.61,3.74,3.68,3.68,0,0,0,3.16-1.47.19.19,0,0,0,0-.25l-.86-.67a.17.17,0,0,0-.24,0,2.36,2.36,0,0,1-2,1,2.08,2.08,0,0,1-2-1.83h5.29a.18.18,0,0,0,.17-.18v-.36C139.3,134.83,138,133.37,135.91,133.37Zm-2.06,3a1.92,1.92,0,0,1,2-1.58,1.71,1.71,0,0,1,1.86,1.58Z" transform="translate(-38.72 -84.24)"/><path class="fd35df14-ded0-4304-ab65-946b73c8884b" d="M149.73,130.23v7.62a2.88,2.88,0,0,1-3.1,3.09,2.73,2.73,0,0,1-2.92-2.35.17.17,0,0,1,.14-.2l1.22-.25a.15.15,0,0,1,.13,0,.14.14,0,0,1,.07.11,1.31,1.31,0,0,0,1.37,1.18c1,0,1.53-.65,1.53-2v-7.19a.16.16,0,0,1,.17-.17h1.22A.17.17,0,0,1,149.73,130.23Z" transform="translate(-38.72 -84.24)"/><path class="fd35df14-ded0-4304-ab65-946b73c8884b" d="M157.54,139.33v-2.92c0-2.08-1-3-3-3a3.92,3.92,0,0,0-2.82,1.09.16.16,0,0,0,0,.24l.71.74a.17.17,0,0,0,.24,0,2.83,2.83,0,0,1,1.9-.7c.69,0,1.51.24,1.51,1.33v0h-.27c-1.33,0-4.45,0-4.45,2.55,0,1.31,1.09,2.19,2.7,2.19a2.78,2.78,0,0,0,2.1-.9,2.8,2.8,0,0,0,.07.59.17.17,0,0,0,.17.13h1.08a.16.16,0,0,0,.13-.06.15.15,0,0,0,0-.14A7.59,7.59,0,0,1,157.54,139.33Zm-3.31.21c-.88,0-1.32-.33-1.32-1,0-.93,1.19-1.13,2.19-1.13h1v.26A1.78,1.78,0,0,1,154.23,139.54Z" transform="translate(-38.72 -84.24)"/><rect class="fd35df14-ded0-4304-ab65-946b73c8884b" x="120.64" y="45.12" width="1.48" height="11.31" rx="0.17"/><path class="fd35df14-ded0-4304-ab65-946b73c8884b" d="M162.59,131.05a1,1,0,1,1,1,1A1,1,0,0,1,162.59,131.05Z" transform="translate(-38.72 -84.24)"/><rect class="fd35df14-ded0-4304-ab65-946b73c8884b" x="124.13" y="49.29" width="1.48" height="7.14" rx="0.17"/><path class="fd35df14-ded0-4304-ab65-946b73c8884b" d="M171.17,138.54c0,1.71-1.56,2.31-2.89,2.31a3,3,0,0,1-2.78-1.34.17.17,0,0,1,0-.23l.9-.7a.17.17,0,0,1,.24,0,1.92,1.92,0,0,0,1.6.85c.49,0,1.33-.18,1.33-.87s-.57-.74-1.32-.91c-1.24-.28-2.53-.57-2.53-2.14s1.36-2.17,2.71-2.17a2.62,2.62,0,0,1,2.46,1.32.16.16,0,0,1-.06.22l-.94.63a.15.15,0,0,1-.13,0,.15.15,0,0,1-.11-.08,1.45,1.45,0,0,0-1.29-.73c-.56,0-1.16.27-1.16.77s.84.68,1.57.82C170,136.57,171.17,137,171.17,138.54Z" transform="translate(-38.72 -84.24)"/><path class="fd35df14-ded0-4304-ab65-946b73c8884b" d="M178.38,139.46a.17.17,0,0,1,0,.24,3.47,3.47,0,0,1-2.7,1.15,3.74,3.74,0,0,1,0-7.48,3.62,3.62,0,0,1,2.73,1.12.17.17,0,0,1,0,.13.16.16,0,0,1-.06.12l-.9.8a.18.18,0,0,1-.25,0,1.9,1.9,0,0,0-1.57-.77,2.1,2.1,0,0,0-2.12,2.36,2.17,2.17,0,0,0,2.12,2.35,1.81,1.81,0,0,0,1.58-.77.17.17,0,0,1,.13-.07.18.18,0,0,1,.13,0Z" transform="translate(-38.72 -84.24)"/><path class="fd35df14-ded0-4304-ab65-946b73c8884b" d="M182.8,133.37a3.74,3.74,0,1,0,3.8,3.74A3.65,3.65,0,0,0,182.8,133.37Zm0,6.09a2.36,2.36,0,1,1,2.24-2.35A2.2,2.2,0,0,1,182.8,139.46Z" transform="translate(-38.72 -84.24)"/><rect class="b073da94-338a-427b-bf9a-9cbee6960fa5" x="36.43" y="5.3" width="2.65" height="5.3"/><rect class="f0b760d5-336c-4910-83bb-f45057156c48" x="31.13" y="7.95" width="2.65" height="2.65"/><polygon class="b073da94-338a-427b-bf9a-9cbee6960fa5" points="36.43 0 36.43 5.3 33.78 5.3 33.78 2.65 31.13 2.65 31.13 0 36.43 0"/><rect class="a5b61aab-06cf-4bca-8311-571194d24f3f" x="28.48" y="5.3" width="2.65" height="2.65"/><rect class="a99459bd-e027-4467-969c-d2abfc4a3855" x="39.08" y="2.65" width="2.65" height="2.65"/><polygon class="b073da94-338a-427b-bf9a-9cbee6960fa5" points="47.02 7.95 47.02 10.6 41.73 10.6 41.73 5.3 44.37 5.3 44.37 7.95 47.02 7.95"/><path class="b073da94-338a-427b-bf9a-9cbee6960fa5" d="M72.5,100.8v2.65h-.67a4.12,4.12,0,0,1-2-.53l-.21-.13a3.74,3.74,0,0,1-1.12-1.12,1.93,1.93,0,0,1-.13-.21,3.72,3.72,0,0,1-.47-1.32.09.09,0,0,1,0,0,4.1,4.1,0,0,1-.71-.18,3.73,3.73,0,0,1-1.33-.79,3,3,0,0,1-.31-.31,3.91,3.91,0,0,1-.78-1.32,3.87,3.87,0,0,1-.23-1.33v-4H67.2v4a1.32,1.32,0,0,0,1.2,1.32h2.11V99.6h0a1.11,1.11,0,0,0,.17.54,1.23,1.23,0,0,0,.48.48,1.26,1.26,0,0,0,.66.18Z" transform="translate(-38.72 -84.24)"/><path class="b073da94-338a-427b-bf9a-9cbee6960fa5" d="M88.39,94.84v1.32a3.87,3.87,0,0,1-.23,1.33,3.91,3.91,0,0,1-.78,1.32,3,3,0,0,1-.31.31,3.73,3.73,0,0,1-1.33.79,3.86,3.86,0,0,1-1.32.23l-1.33.66-1.32.66h0l-.66.33v1.06a3.49,3.49,0,0,1-.24,1.26,3.1,3.1,0,0,1-.41.76l0,0a3,3,0,0,1-.49.54,3.19,3.19,0,0,1-2.2.66v-2.65a.72.72,0,0,0,.45-.18.76.76,0,0,0,.24-.48l0-2.32.66-.33.4-.2.92-.46,1.12-.56.21-.1h0l1.32-.66,1.33-.66a1.32,1.32,0,0,0,1.32-1.33V94.84Z" transform="translate(-38.72 -84.24)"/><rect class="a99459bd-e027-4467-969c-d2abfc4a3855" x="33.78" y="19.21" width="2.65" height="2.65"/><rect class="f0b760d5-336c-4910-83bb-f45057156c48" x="36.43" y="21.86" width="2.65" height="2.65"/><rect class="a5b61aab-06cf-4bca-8311-571194d24f3f" x="33.78" y="24.51" width="2.65" height="2.65"/><rect class="a99459bd-e027-4467-969c-d2abfc4a3855" x="36.43" y="27.16" width="2.65" height="2.65"/><rect class="f0b760d5-336c-4910-83bb-f45057156c48" x="39.08" y="29.8" width="2.65" height="2.65"/><rect class="a5b61aab-06cf-4bca-8311-571194d24f3f" x="41.73" y="32.45" width="2.65" height="2.65"/><path class="b073da94-338a-427b-bf9a-9cbee6960fa5" d="M94.35,106.1v5.3a2.68,2.68,0,0,1-.35,1.32,2.24,2.24,0,0,1-.31.43,2.63,2.63,0,0,1-1.32.81,2.52,2.52,0,0,1-.67.09H88.39a2.63,2.63,0,0,1-1.32,2.29,2.62,2.62,0,0,1-1.33.36H83.09v-2.65h2.65a2.72,2.72,0,0,1,.35-1.33,2.76,2.76,0,0,1,1-1,2.68,2.68,0,0,1,1.32-.35H91a.66.66,0,0,0,.66-.66V106.1Z" transform="translate(-38.72 -84.24)"/><path class="b073da94-338a-427b-bf9a-9cbee6960fa5" d="M72.5,111.4v2.65h-.67a2.84,2.84,0,0,0-.66.08,2.59,2.59,0,0,0-1.32.81,2.18,2.18,0,0,0-.32.43,2.7,2.7,0,0,0-.37,1.33v0c0,.11,0,.22,0,.33V126H66.54V116.7a5.32,5.32,0,0,1,.16-1.33,5.49,5.49,0,0,1,1.63-2.65l.19-.16a5.48,5.48,0,0,1,2.65-1.12,4.87,4.87,0,0,1,.66,0Z" transform="translate(-38.72 -84.24)"/><rect class="b71d0df7-b507-4435-93ec-6ce552c8864b" x="22.52" y="31.13" width="2.65" height="2.65"/><rect class="a5b61aab-06cf-4bca-8311-571194d24f3f" x="19.87" y="33.78" width="2.65" height="2.65"/><rect class="a99459bd-e027-4467-969c-d2abfc4a3855" y="44.38" width="2.65" height="2.65"/><rect class="b71d0df7-b507-4435-93ec-6ce552c8864b" x="2.65" y="47.02" width="2.65" height="2.65"/><rect class="a99459bd-e027-4467-969c-d2abfc4a3855" x="25.17" y="41.73" width="2.65" height="2.65"/><rect class="b073da94-338a-427b-bf9a-9cbee6960fa5" x="22.52" y="36.43" width="2.65" height="5.3"/><path class="b073da94-338a-427b-bf9a-9cbee6960fa5" d="M58.59,115.37V118H56.24a5.71,5.71,0,0,0-1.63.37A7.19,7.19,0,0,0,50.9,122a5.57,5.57,0,0,0-.26,1.07,10.63,10.63,0,0,0,0,3.56h-5.3a1.31,1.31,0,0,0-1.14.66A1.27,1.27,0,0,0,44,128v.66H41.37v-.88c0-.06,0-.12,0-.17l0-.28v0l0-.15a4.43,4.43,0,0,1,.13-.49h0a.14.14,0,0,1,0-.06,3.49,3.49,0,0,1,.2-.44,1.09,1.09,0,0,1,.08-.15,3.91,3.91,0,0,1,.79-1,3.64,3.64,0,0,1,.45-.35,4,4,0,0,1,.88-.44,3.86,3.86,0,0,1,1.32-.23H48a6.42,6.42,0,0,1,.59-3.31,10.05,10.05,0,0,1,.86-1.32,12.05,12.05,0,0,1,.92-1l.28-.28A11.93,11.93,0,0,1,52,116.88l.26-.18a8.89,8.89,0,0,1,1.06-.59,7,7,0,0,1,1.32-.48,7.47,7.47,0,0,1,1.75-.26Z" transform="translate(-38.72 -84.24)"/><rect class="fd35df14-ded0-4304-ab65-946b73c8884b" x="55.63" y="19.21" width="2.65" height="2.65"/><path class="b073da94-338a-427b-bf9a-9cbee6960fa5" d="M106.94,99.48v2.65a3.48,3.48,0,0,0-.67.24l-.19.11a3.08,3.08,0,0,0-1,1,1.63,1.63,0,0,0-.11.17c-.25.37-.46.77-.77,1.15a3.74,3.74,0,0,1-.55.59l-.18.14a4.54,4.54,0,0,1-1.15.6H99.65v-2.65H101a2.69,2.69,0,0,0,1-.27,3.37,3.37,0,0,0,.34-.21,3.09,3.09,0,0,0,.74-.84c.2-.31.37-.63.59-.94l.2-.28a.52.52,0,0,0,.1-.11,3.83,3.83,0,0,1,1-.78,5.53,5.53,0,0,1,1.32-.5l.19,0Z" transform="translate(-38.72 -84.24)"/><rect class="a99459bd-e027-4467-969c-d2abfc4a3855" x="58.28" y="21.86" width="2.65" height="2.65"/><rect class="a5b61aab-06cf-4bca-8311-571194d24f3f" x="68.22" y="17.88" width="2.65" height="2.65"/><rect class="a99459bd-e027-4467-969c-d2abfc4a3855" x="70.87" y="15.23" width="2.65" height="2.65"/><path class="b073da94-338a-427b-bf9a-9cbee6960fa5" d="M114.88,102.13v4.48a18.1,18.1,0,0,1-1.66,4.54,9,9,0,0,1-1.93,2.63,7.28,7.28,0,0,1-1.32.93h-4.36v-2.65h3.07a5,5,0,0,0,1-.58,6,6,0,0,0,2-2.73,6.93,6.93,0,0,0,.5-2.28v-4.34Z" transform="translate(-38.72 -84.24)"/><rect class="fd35df14-ded0-4304-ab65-946b73c8884b" x="64.25" y="30.47" width="2.65" height="2.65"/><rect class="a5b61aab-06cf-4bca-8311-571194d24f3f" x="53.65" y="54.31" width="2.65" height="2.65"/><rect class="a5b61aab-06cf-4bca-8311-571194d24f3f" x="64.25" y="35.76" width="2.65" height="2.65"/><rect class="a99459bd-e027-4467-969c-d2abfc4a3855" x="64.25" y="41.06" width="2.65" height="2.65"/><rect class="a99459bd-e027-4467-969c-d2abfc4a3855" x="66.89" y="33.11" width="2.65" height="2.65"/><rect class="fd35df14-ded0-4304-ab65-946b73c8884b" x="61.6" y="38.41" width="2.65" height="2.65"/><path class="b073da94-338a-427b-bf9a-9cbee6960fa5" d="M103,128v2.64H99.84c-.3,0-.59.08-.85.13a8.74,8.74,0,0,0-1.32.36,6.22,6.22,0,0,0-.6.24c-.27.12-.51.25-.73.37l-.38.23c-.32.2-.61.41-.94.62a8.94,8.94,0,0,1-1.33.7c-.21.1-.42.18-.61.25h0c-.24.09-.46.16-.66.22l-.76.19H89.72a1,1,0,0,0-.94.66,1.14,1.14,0,0,0-.06.33,1,1,0,0,0,1,1h2.65v2.65H89.72a3.66,3.66,0,0,1-1.33-.25,3.51,3.51,0,0,1-1.32-.89l-.16-.18a3.62,3.62,0,0,1-.7-1.33,3.53,3.53,0,0,1-.14-1c0-.11,0-.22,0-.33a3.52,3.52,0,0,1,.38-1.33,3.79,3.79,0,0,1,1.15-1.32l.11-.07a3.63,3.63,0,0,1,2-.59h1.09l.23,0a8.85,8.85,0,0,0,1.33-.35c.22-.08.46-.17.71-.28a5.78,5.78,0,0,0,.61-.3,11.81,11.81,0,0,0,1.33-.87l.22-.15a6.92,6.92,0,0,1,2.43-1.1A6.81,6.81,0,0,1,99,128l.47,0Z" transform="translate(-38.72 -84.24)"/><path class="b073da94-338a-427b-bf9a-9cbee6960fa5" d="M97.67,141.2v4a7.67,7.67,0,0,1-.14,1.33,7.82,7.82,0,0,1-.37,1.32,6,6,0,0,1-.69,1.33l-.13.18a4.53,4.53,0,0,1-1.27,1.14l-.06,0a4.43,4.43,0,0,1-1.32.51,4.13,4.13,0,0,1-.66.11h0a6.71,6.71,0,0,1-.19.66,4.89,4.89,0,0,1-.47,1,3.19,3.19,0,0,1-.23.32,1.71,1.71,0,0,1-.21.26,3.64,3.64,0,0,1-.38.4,4.58,4.58,0,0,1-.51.41,4.78,4.78,0,0,1-.42.26l-.24.12a4.38,4.38,0,0,1-.66.27,5.3,5.3,0,0,1-1.33.27H85.08v-2.65h3.31a4.48,4.48,0,0,0,1.07-.66l.26-.23a4.76,4.76,0,0,0,.41-.47,3.9,3.9,0,0,0,.25-.36,1.82,1.82,0,0,0,.15-.27,4.8,4.8,0,0,0,.45-1.32,3.93,3.93,0,0,0,.06-.66H93a2.21,2.21,0,0,0,.72-.32,1.54,1.54,0,0,0,.23-.18,1,1,0,0,0,.14-.17,4.63,4.63,0,0,0,.58-1.32c0-.1.06-.2.1-.3.13-.42.21-.78.27-1v-4Z" transform="translate(-38.72 -84.24)"/><rect class="a99459bd-e027-4467-969c-d2abfc4a3855" x="23.84" y="58.94" width="2.65" height="2.65"/><rect class="b71d0df7-b507-4435-93ec-6ce552c8864b" x="43.71" y="65.57" width="2.65" height="2.65"/><rect class="a5b61aab-06cf-4bca-8311-571194d24f3f" x="21.19" y="61.59" width="2.65" height="2.65"/><path class="b073da94-338a-427b-bf9a-9cbee6960fa5" d="M82.43,152.46v2.65H81.11a2.6,2.6,0,0,1-1.33-.36,2.63,2.63,0,0,1-1-1,2.69,2.69,0,0,1-.35-1.33v-5.3a1.33,1.33,0,0,0-1.33-1.32H70.51a2.67,2.67,0,0,1-1.33,2.29,2.56,2.56,0,0,1-1.32.36H65.21v-2.65h2.12a.53.53,0,0,0,.53-.53v-2.12h9.27a4,4,0,0,1,2.65,1,3,3,0,0,1,.31.31,4,4,0,0,1,1,2.65v4.77a.52.52,0,0,0,.52.53Z" transform="translate(-38.72 -84.24)"/><path class="b073da94-338a-427b-bf9a-9cbee6960fa5" d="M59.91,148.49v2.65H57.26l-1.32-1.06-.33-.27-1-.79-.66-.53-.66-.53-1-.8L52,146.9l-1.33-1.06v-3.3a4.29,4.29,0,0,0-.37-.68,3.91,3.91,0,0,0-1-1l-.42-.36-.91-.78-.62-.54-.7-.61a5.69,5.69,0,0,1-.62-.45l-.33-.27-.38-.35c-.13-.13-.27-.28-.39-.42a5.63,5.63,0,0,1-.37-.55,4.76,4.76,0,0,1-.5-1.33A1.27,1.27,0,0,1,44,135v-1h2.65a2.23,2.23,0,0,0,0,.37,3.1,3.1,0,0,0,.22,1l.11.22a2.92,2.92,0,0,0,1,1.11l1.33,1.09.28.23,1,.86.57.47.76.62a6.78,6.78,0,0,1,.57.7c.09.13.17.26.26.41a5.9,5.9,0,0,1,.42.91c0,.08.05.15.07.22v2.43l1.32,1,.45.33.88.66.88.66.44.33,1.33,1Z" transform="translate(-38.72 -84.24)"/></svg>